<svg xmlns="http://www.w3.org/2000/svg">
  <symbol id='bolt' width="120" height="120" viewBox="0 0 120 120" fill="none"
    xmlns="http://www.w3.org/2000/svg">
    <path
      d="M120 60C120 93.1371 93.1371 120 60 120C26.8629 120 0 93.1371 0 60C0 26.8629 26.8629 0 60 0C93.1371 0 120 26.8629 120 60Z"
      fill="#F2F2F2" />
    <path fill-rule="evenodd" clip-rule="evenodd"
      d="M63.4445 38.9997C63.4444 38.5871 63.3026 38.1847 63.0385 37.8475C62.7743 37.5104 62.4008 37.255 61.9691 37.1163C61.5374 36.9777 61.0686 36.9626 60.6269 37.0731C60.1853 37.1836 59.7925 37.4143 59.5022 37.7336L39.5019 59.7341C39.2357 60.0271 39.0673 60.3821 39.0164 60.7579C38.9654 61.1336 39.034 61.5146 39.2141 61.8567C39.3943 62.1987 39.6786 62.4878 40.034 62.6902C40.3894 62.8926 40.8013 63.0001 41.2219 63.0001H54.5555V75.0003C54.5556 75.4129 54.6974 75.8153 54.9615 76.1525C55.2257 76.4896 55.5992 76.745 56.0309 76.8837C56.4626 77.0223 56.9314 77.0374 57.3731 76.9269C57.8147 76.8164 58.2075 76.5857 58.4978 76.2664L78.4981 54.266C78.7643 53.9729 78.9327 53.6179 78.9836 53.2421C79.0346 52.8664 78.966 52.4854 78.7859 52.1433C78.6057 51.8013 78.3214 51.5122 77.966 51.3098C77.6106 51.1074 77.1987 50.9999 76.7781 50.9999H63.4445V38.9997Z"
      fill="#FE4A22" />
  </symbol>

  <symbol id='node' width="120" height="120" viewBox="0 0 120 120" fill="none"
    xmlns="http://www.w3.org/2000/svg">
    <circle cx="60" cy="60" r="60" fill="#FE4A22" />
    <path
      d="M43.1043 67.9076L42.9627 68.1099L43.0372 68.3453C43.3336 69.2815 43.5 70.3255 43.5 71.4286C43.5 73.5083 42.9091 75.3696 41.9795 76.6977C41.0487 78.0273 39.8108 78.7857 38.5 78.7857C37.1892 78.7857 35.9513 78.0273 35.0205 76.6977C34.0909 75.3696 33.5 73.5083 33.5 71.4286C33.5 69.3489 34.0909 67.4875 35.0205 66.1595C35.9513 64.8298 37.1892 64.0714 38.5 64.0714C39.2008 64.0714 39.8742 64.2862 40.4926 64.6858L40.8973 64.9472L41.1735 64.5525L47.6457 55.3066L47.7873 55.1044L47.7128 54.869C47.4164 53.9327 47.25 52.8888 47.25 51.7857C47.25 49.706 47.8409 47.8447 48.7705 46.5166C49.7013 45.187 50.9392 44.4286 52.25 44.4286C53.5608 44.4286 54.7987 45.187 55.7295 46.5166C56.6591 47.8447 57.25 49.706 57.25 51.7857C57.25 52.8888 57.0836 53.9327 56.7872 54.869L56.7127 55.1044L56.8543 55.3066L63.3265 64.5525L63.6027 64.9472L64.0074 64.6858C64.6258 64.2862 65.2992 64.0714 66 64.0714C66.7008 64.0714 67.3742 64.2862 67.9926 64.6858L68.3973 64.9472L68.6735 64.5525L77.8957 51.3781L78.0373 51.1758L77.9628 50.9404C77.6664 50.0042 77.5 48.9602 77.5 47.8571C77.5 45.7775 78.0909 43.9161 79.0205 42.588C79.9513 41.2584 81.1892 40.5 82.5 40.5C83.8108 40.5 85.0487 41.2584 85.9795 42.588C86.9091 43.9161 87.5 45.7775 87.5 47.8571C87.5 49.9368 86.9091 51.7982 85.9795 53.1263C85.0487 54.4559 83.8108 55.2143 82.5 55.2143C81.7992 55.2143 81.1258 54.9995 80.5074 54.5999L80.1027 54.3385L79.8265 54.7332L70.6043 67.9076L70.4627 68.1099L70.5372 68.3453C70.8336 69.2815 71 70.3255 71 71.4286C71 73.5083 70.4091 75.3696 69.4795 76.6977C68.5487 78.0273 67.3108 78.7857 66 78.7857C64.6892 78.7857 63.4513 78.0273 62.5205 76.6977C61.5909 75.3696 61 73.5083 61 71.4286C61 70.3255 61.1664 69.2815 61.4628 68.3453L61.5373 68.1099L61.3957 67.9076L54.9235 58.6617L54.6473 58.2671L54.2426 58.5285C53.6242 58.928 52.9508 59.1429 52.25 59.1429C51.5492 59.1429 50.8758 58.928 50.2574 58.5285L49.8527 58.2671L49.5765 58.6617L43.1043 67.9076Z"
      fill="#F2F2F2" stroke="#F2F2F2" />
  </symbol>

  <symbol id='voice' width="120" height="120" viewBox="0 0 120 120" fill="none"
    xmlns="http://www.w3.org/2000/svg">
    <path
      d="M120 60C120 93.1371 93.1371 120 60 120C26.8629 120 0 93.1371 0 60C0 26.8629 26.8629 0 60 0C93.1371 0 120 26.8629 120 60Z"
      fill="#FFD026" />
    <path
      d="M59.5 74C61.9063 74 63.875 72.0313 63.875 69.625V43.375C63.875 40.9687 61.9063 39 59.5 39C57.0937 39 55.125 40.9687 55.125 43.375V69.625C55.125 72.0313 57.0937 74 59.5 74ZM46.375 74C48.7813 74 50.75 72.0313 50.75 69.625V60.875C50.75 58.4687 48.7813 56.5 46.375 56.5C43.9687 56.5 42 58.4687 42 60.875V69.625C42 72.0313 43.9687 74 46.375 74ZM68.25 54.3125V69.625C68.25 72.0313 70.2187 74 72.625 74C75.0313 74 77 72.0313 77 69.625V54.3125C77 51.9062 75.0313 49.9375 72.625 49.9375C70.2187 49.9375 68.25 51.9062 68.25 54.3125Z"
      fill="black" />
  </symbol>

</svg>